<?xml version="1.0" encoding="UTF-8" standalone="no"?>
<!-- Created with Inkscape (http://www.inkscape.org/) -->

<svg
   width="64.344429mm"
   height="27.095888mm"
   viewBox="0 0 64.344429 27.095888"
   version="1.1"
   id="svg1"
   xml:space="preserve"
   xmlns="http://www.w3.org/2000/svg"
   xmlns:svg="http://www.w3.org/2000/svg"><defs
     id="defs1"><marker
       style="overflow:visible"
       id="Triangle"
       refX="0"
       refY="0"
       orient="auto-start-reverse"
       markerWidth="1"
       markerHeight="1"
       viewBox="0 0 1 1"
       preserveAspectRatio="xMidYMid"><path
         transform="scale(0.5)"
         style="fill:context-stroke;fill-rule:evenodd;stroke:context-stroke;stroke-width:1pt"
         d="M 5.77,0 -2.88,5 V -5 Z"
         id="path135" /></marker><marker
       style="overflow:visible"
       id="ArrowWide"
       refX="0"
       refY="0"
       orient="auto-start-reverse"
       markerWidth="1"
       markerHeight="1"
       viewBox="0 0 1 1"
       preserveAspectRatio="xMidYMid"><path
         style="fill:none;stroke:context-stroke;stroke-width:1;stroke-linecap:butt"
         d="M 3,-3 0,0 3,3"
         transform="rotate(180,0.125,0)"
         id="path1" /></marker><rect
       x="991.53491"
       y="17.172815"
       width="91.328148"
       height="74.350479"
       id="rect19" /><rect
       x="991.53491"
       y="17.172815"
       width="91.328148"
       height="74.350479"
       id="rect19-4" /></defs><g
     id="layer1"
     transform="translate(-355.90907,-216.90428)"
     style="stroke:#000000;stroke-opacity:1"><g
       id="layer1-4"
       transform="matrix(0.35108893,0,0,0.35108893,-75.959015,188.80812)"
       style="stroke:#000000;stroke-width:1.28457;stroke-dasharray:none;stroke-opacity:1"><g
         id="layer1-1"
         transform="matrix(1.0432176,0,0,1.0432176,-4.0523231,-10.016497)"
         style="stroke:#000000;stroke-opacity:1"><g
           id="layer1-8"
           transform="matrix(1.0137394,0,0,1.0137394,-1.8928345,1.8144946)"
           style="stroke:#000000;stroke-opacity:1"><g
             id="layer1-16"
             transform="matrix(0.97505292,0,0,0.97505292,3.0453833,-0.09134515)"
             style="stroke:#000000;stroke-opacity:1"><g
               id="g4"
               style="stroke:#727272;stroke-opacity:0.917647"><g
                 id="layer1-48"
                 transform="matrix(1.1337437,0,0,1.1337437,-13.160762,-39.737931)"
                 style="stroke:#727272;stroke-opacity:0.917647"><path
                   style="fill:none;fill-opacity:1;stroke:#727272;stroke-width:1.13084;stroke-linecap:round;stroke-dasharray:none;stroke-dashoffset:0;stroke-opacity:0.917647"
                   d="m 182.59067,179.52202 c 0,0 -38.6397,0.38763 -54.20208,-0.22102 -7.16799,-0.28033 -12.08378,-80.857002 -18.76859,-80.984652 -7.51671,-0.143534 -9.937372,81.132902 -22.550157,80.880162 -17.567282,-0.35203 -51.564261,0.32492 -51.564261,0.32492"
                   id="path42" /><path
                   style="fill:none;fill-opacity:1;stroke:#727272;stroke-width:1.13084;stroke-linecap:round;stroke-dasharray:none;stroke-dashoffset:0;stroke-opacity:0.917647"
                   d="m 35.210706,179.26597 c 0,0 10.246582,-0.2117 16.740303,-0.0757 5.3847,0.1127 20.135848,-49.9048 27.093788,-49.9048 7.974421,0 21.762123,50.06897 30.027743,50.05005 20.11127,-0.046 72.52139,0.37533 72.52139,0.37533"
                   id="path43" /><path
                   style="fill:none;fill-opacity:1;stroke:#727272;stroke-width:1.13084;stroke-linecap:round;stroke-dasharray:none;stroke-dashoffset:0;stroke-opacity:0.917647"
                   d="m 34.704963,179.52202 c 0,0 48.593743,-15.66135 73.714117,-15.66925 25.19494,-0.009 73.94285,15.66925 73.94285,15.66925"
                   id="path44" /><path
                   style="fill:none;fill-opacity:1;stroke:#727272;stroke-width:1.13084;stroke-linecap:round;stroke-dasharray:none;stroke-dashoffset:0;stroke-opacity:0.917647"
                   d="m 34.704963,179.40764 c 0,0 27.609473,-0.49103 41.415665,-0.49103 10.081396,0 16.631588,-35.52536 32.847812,-35.90258 17.16901,-0.39938 19.334,36.35386 36.50768,36.35386 12.58912,0 37.4118,0.0398 37.4118,0.0398"
                   id="path45" /></g></g></g><path
             style="fill:#a49fee;fill-opacity:0.878431;stroke:#727272;stroke-width:0.950728;stroke-linecap:square;stroke-dasharray:none;stroke-opacity:0.917647"
             d="m 263.30949,138.43124 c 0,0 8.0023,-1.90388 11.12482,-4.3804 3.2892,-2.60871 4.86009,-7.20342 7.1616,-10.35998 1.96283,-2.69206 9.64909,0.27389 11.19435,-2.50308 2.23648,-4.01916 4.44645,-10.89805 9.38656,-11.75059 4.03089,-0.69563 10.42952,6.4663 10.42952,6.4663 0,0 7.47001,11.7308 12.9326,15.78333 4.43152,3.28761 15.29663,6.32724 15.29663,6.32724"
             id="path2" /><path
             style="fill:#a49fee;fill-opacity:0.878431;stroke:#727272;stroke-width:0.950726;stroke-linecap:square;stroke-dasharray:none;stroke-opacity:0.917647"
             d="m 349.87448,138.50077 c 0,0 8.61652,-1.94573 12.2373,-4.31086 2.89664,-1.89212 5.29616,-4.62154 7.09207,-7.57878 1.51816,-2.49989 2.32305,-5.41094 2.92027,-8.27409 1.75836,-8.42989 1.79679,-24.976627 4.58898,-24.891777 2.6039,0.0791 3.24011,16.621157 5.56241,24.752717 0.88968,3.11521 3.19839,9.17797 3.19839,9.17797 5.4246,7.45172 13.02872,10.31498 21.97151,10.35999"
             id="path3" /><path
             style="fill:none;fill-opacity:0.878431;stroke:#727272;stroke-width:1.13353;stroke-linecap:square;stroke-dasharray:none;stroke-opacity:1"
             d="m 492.94849,145.64703 c 33.51365,0.30305 39.81647,-44.55322 55.68768,-44.65051 11.88053,-0.0729 14.80334,37.06133 45.43236,44.55725"
             id="path5" /><path
             style="fill:none;fill-opacity:0.878431;stroke:#727272;stroke-width:1.13353;stroke-linecap:square;stroke-dasharray:none;stroke-opacity:1"
             d="m 532.0471,145.61993 c 7.10371,-0.20033 17.19861,-7.36719 24.39043,-13.16729 10.65012,-8.58918 19.69543,-31.0483 26.70702,-31.16932 8.08361,-0.13952 14.5809,16.61544 20.46226,26.4352 7.93159,13.24292 25.80579,17.76535 25.80579,17.76535"
             id="path6" /><path
             style="fill:none;fill-opacity:0.878431;stroke:#727272;stroke-width:1.13353;stroke-linecap:square;stroke-dasharray:1.13353, 4.53411;stroke-dashoffset:0;stroke-opacity:1"
             d="m 548.78423,101.09767 v 45.15602"
             id="path7-7" /><path
             style="fill:#9692e2;fill-opacity:0.878431;stroke:#727272;stroke-width:1.13353;stroke-linecap:square;stroke-dasharray:none;stroke-dashoffset:0;stroke-opacity:1"
             d="m 569.50439,128.72311 v 16.70631 h 24.20947 c -10.11825,-3.52034 -18.61589,-8.66131 -24.20947,-16.70631 z"
             id="path8" /><path
             style="fill:#a49fee;fill-opacity:1;stroke:#727272;stroke-width:1.13353;stroke-linecap:square;stroke-dasharray:none;stroke-opacity:1"
             d="M 475.54135,145.6344 H 652.4483"
             id="path4" /><path
             style="fill:#a49fee;fill-opacity:1;stroke:#727272;stroke-width:1.13353;stroke-linecap:square;stroke-dasharray:none;stroke-dashoffset:0;stroke-opacity:1"
             d="M 569.50795,129.22701 V 116.68263"
             id="path9" /><path
             style="fill:none;fill-opacity:0.878431;stroke:#727272;stroke-width:1.13353;stroke-linecap:square;stroke-dasharray:1.13353, 4.53411;stroke-dashoffset:0;stroke-opacity:1"
             d="M 583.47614,101.49057 V 145.7173"
             id="path7" /><path
             style="fill:none;fill-opacity:0.878431;stroke:#a93b3b;stroke-width:0.992573;stroke-linecap:square;stroke-dasharray:none;stroke-dashoffset:0;stroke-opacity:1"
             d="m 755.16995,142.42886 37.77837,-37.88102"
             id="path17" /><path
             style="fill:none;fill-opacity:0.878431;stroke:#a93b3b;stroke-width:0.992573;stroke-linecap:square;stroke-dasharray:none;stroke-dashoffset:0;stroke-opacity:1"
             d="m 761.84277,146.74052 32.3374,-33.26138"
             id="path18" /><path
             style="fill:none;fill-opacity:0.878431;stroke:#a93b3b;stroke-width:0.992573;stroke-linecap:square;stroke-dasharray:none;stroke-dashoffset:0;stroke-opacity:1"
             d="M 770.15812,149.40964 797.15729,120.7679"
             id="path19" /><circle
             style="fill:none;fill-opacity:0.878431;stroke:#727272;stroke-width:1.12263;stroke-linecap:square;stroke-dasharray:none;stroke-dashoffset:0;stroke-opacity:1"
             id="path10"
             cx="770.86945"
             cy="119.32339"
             r="32.162468" /><circle
             style="fill:none;fill-opacity:0.878431;stroke:#727272;stroke-width:1.20018;stroke-linecap:square;stroke-dasharray:none;stroke-dashoffset:0;stroke-opacity:1"
             id="path10-5"
             cx="815.30499"
             cy="118.60208"
             r="34.384319" /><path
             style="fill:none;fill-opacity:0.878431;stroke:#a93b3b;stroke-width:0.992573;stroke-linecap:square;stroke-dasharray:none;stroke-dashoffset:0;stroke-opacity:1"
             d="M 742.74821,113.47914 770.15812,90.688934"
             id="path11" /><path
             style="fill:none;fill-opacity:0.878431;stroke:#a93b3b;stroke-width:0.992573;stroke-linecap:square;stroke-dasharray:none;stroke-dashoffset:0;stroke-opacity:1"
             d="M 744.08283,120.66525 775.08569,93.666033"
             id="path12" /><path
             style="fill:none;fill-opacity:0.878431;stroke:#a93b3b;stroke-width:0.992573;stroke-linecap:square;stroke-dasharray:none;stroke-dashoffset:0;stroke-opacity:1"
             d="m 743.87748,128.26197 9.75261,-7.9047"
             id="path13" /><path
             style="fill:none;fill-opacity:0.878431;stroke:#a93b3b;stroke-width:0.992573;stroke-linecap:square;stroke-dasharray:none;stroke-dashoffset:0;stroke-opacity:1"
             d="M 771.38997,104.65051 785.5569,92.023496"
             id="path14" /><path
             style="fill:none;fill-opacity:0.878431;stroke:#a93b3b;stroke-width:0.992573;stroke-linecap:square;stroke-dasharray:none;stroke-dashoffset:0;stroke-opacity:1"
             d="m 750.75564,135.03744 12.55052,-11.08713"
             id="path15" /><path
             style="fill:none;fill-opacity:0.878431;stroke:#a93b3b;stroke-width:0.992573;stroke-linecap:square;stroke-dasharray:none;stroke-dashoffset:0;stroke-opacity:1"
             d="M 774.16176,109.8861 785.45423,99.722889"
             id="path16" /><text
             xml:space="preserve"
             transform="matrix(0.28347778,0,0,0.28347778,472.35411,105.25805)"
             id="text19"
             style="font-size:33.3333px;font-family:Arial;-inkscape-font-specification:Arial;text-align:center;writing-mode:lr-tb;direction:ltr;white-space:pre;shape-inside:url(#rect19);display:inline;fill:#a93b3b;fill-opacity:1;stroke:none;stroke-width:1.33417;stroke-linecap:square;stroke-dasharray:none;stroke-dashoffset:0;stroke-opacity:1"><tspan
               x="1002.9463"
               y="47.196994"
               id="tspan2">H(X)</tspan></text><text
             xml:space="preserve"
             transform="matrix(0.27360214,0,0,0.27360214,533.17371,106.16663)"
             id="text19-8"
             style="font-size:33.3333px;font-family:Arial;-inkscape-font-specification:Arial;text-align:center;writing-mode:lr-tb;direction:ltr;white-space:pre;shape-inside:url(#rect19-4);display:inline;fill:#00a0d7;fill-opacity:1;stroke:none;stroke-width:1.33417;stroke-linecap:square;stroke-dasharray:none;stroke-dashoffset:0;stroke-opacity:1"><tspan
               x="1002.9463"
               y="47.196994"
               id="tspan3">H(Y)</tspan></text><path
             style="fill:none;fill-opacity:1;stroke:#00a0d7;stroke-width:0.992573;stroke-linecap:square;stroke-dasharray:none;stroke-dashoffset:0;stroke-opacity:1"
             d="m 808.79545,150.10457 -23.3016,-19.52686"
             id="path20" /><path
             style="fill:none;fill-opacity:1;stroke:#00a0d7;stroke-width:0.992573;stroke-linecap:square;stroke-dasharray:none;stroke-dashoffset:0;stroke-opacity:1"
             d="M 816.92558,150.10457 784.18725,121.28611"
             id="path21" /><path
             style="fill:none;fill-opacity:1;stroke:#00a0d7;stroke-width:0.992573;stroke-linecap:square;stroke-dasharray:none;stroke-dashoffset:0;stroke-opacity:1"
             d="M 824.98314,144.95064 784.25986,109.8168"
             id="path22" /><path
             style="fill:none;fill-opacity:1;stroke:#00a0d7;stroke-width:0.992573;stroke-linecap:square;stroke-dasharray:none;stroke-dashoffset:0;stroke-opacity:1"
             d="M 828.54011,138.85303 787.30863,102.1222"
             id="path23" /><path
             style="fill:none;fill-opacity:1;stroke:#00a0d7;stroke-width:0.992573;stroke-linecap:square;stroke-dasharray:none;stroke-dashoffset:0;stroke-opacity:1"
             d="M 836.88797,136.60272 824.25726,124.40751"
             id="path24" /><path
             style="fill:none;fill-opacity:1;stroke:#00a0d7;stroke-width:0.992573;stroke-linecap:square;stroke-dasharray:none;stroke-dashoffset:0;stroke-opacity:1"
             d="M 810.61022,109.96198 794.42248,94.209824"
             id="path25" /><path
             style="fill:none;fill-opacity:1;stroke:#00a0d7;stroke-width:0.992573;stroke-linecap:square;stroke-dasharray:none;stroke-dashoffset:0;stroke-opacity:1"
             d="m 800.6653,90.798067 41.59438,35.279023"
             id="path26" /><path
             style="fill:none;fill-opacity:1;stroke:#00a0d7;stroke-width:0.992573;stroke-linecap:square;stroke-dasharray:none;stroke-dashoffset:0;stroke-opacity:1"
             d="m 810.465,87.168538 34.6983,34.044982"
             id="path27" /><path
             style="fill:none;fill-opacity:1;stroke:#00a0d7;stroke-width:0.992573;stroke-linecap:square;stroke-dasharray:none;stroke-dashoffset:0;stroke-opacity:1"
             d="m 822.07953,87.386309 23.22898,24.245261"
             id="path28" /><path
             style="fill:none;fill-opacity:1;stroke:#8bace5;stroke-width:1.11976;stroke-linecap:square;stroke-dasharray:1.11976, 2.23951;stroke-dashoffset:0;stroke-opacity:1"
             d="m 1022.9921,158.04615 v 14.9862"
             id="path35" /><path
             style="fill:none;fill-opacity:1;stroke:#d30302;stroke-width:1.11976;stroke-linecap:square;stroke-dasharray:1.11976, 2.23951;stroke-dashoffset:0;stroke-opacity:1;marker-start:url(#ArrowWide);marker-end:url(#ArrowWide)"
             d="m 972.88401,129.18997 c 32.74119,24.18973 65.27169,30.67922 97.35969,0"
             id="path32" /><circle
             style="fill:#cfcfcf;fill-opacity:1;stroke:#999999;stroke-width:1.05928;stroke-linecap:square;stroke-dasharray:none;stroke-dashoffset:0;stroke-opacity:1"
             id="path29"
             cx="1022.8572"
             cy="147.19882"
             r="10.627085" /><circle
             style="fill:#cfcfcf;fill-opacity:1;stroke:#999999;stroke-width:1.05928;stroke-linecap:square;stroke-dasharray:none;stroke-dashoffset:0;stroke-opacity:1"
             id="path29-7"
             cx="990.31757"
             cy="139.95729"
             r="10.627085" /><circle
             style="fill:#cfcfcf;fill-opacity:1;stroke:#999999;stroke-width:1.05928;stroke-linecap:square;stroke-dasharray:none;stroke-dashoffset:0;stroke-opacity:1"
             id="path29-7-1"
             cx="1055.3942"
             cy="140.54179"
             r="10.627085" /><path
             style="fill:#cfcfcf;fill-opacity:1;stroke:#999999;stroke-width:1.11976;stroke-linecap:square;stroke-dasharray:none;stroke-dashoffset:0;stroke-opacity:1"
             d="M 1022.949,136.38483 V 69.097751"
             id="path30" /><path
             style="fill:none;fill-opacity:1;stroke:#999999;stroke-width:1.11976;stroke-linecap:square;stroke-dasharray:1.11976, 2.23951;stroke-dashoffset:0;stroke-opacity:1"
             d="M 994.42521,129.88486 1022.3571,69.745434"
             id="path33" /><path
             style="fill:none;fill-opacity:1;stroke:#999999;stroke-width:1.11976;stroke-linecap:square;stroke-dasharray:1.11976, 2.23951;stroke-dashoffset:0;stroke-opacity:1"
             d="m 1051.4049,130.81135 -28.374,-61.843889"
             id="path34" /><circle
             style="fill:#cfcfcf;fill-opacity:1;stroke:none;stroke-width:1.84174;stroke-linecap:square;stroke-dasharray:none;stroke-dashoffset:0;stroke-opacity:1"
             id="path31"
             cx="1023.0838"
             cy="69.777298"
             r="2.8096592" /><path
             style="fill:none;fill-opacity:1;stroke:#999999;stroke-width:0.950726;stroke-linecap:square;stroke-dasharray:none;stroke-dashoffset:0;stroke-opacity:1"
             d="m 1173.6311,122.50885 7.6483,-13.90602 7.2312,7.37019 7.3702,-11.95918 6.953,-3.05933 7.092,1.66873 7.6483,-1.66873 7.5093,-6.396768 6.8139,10.151398 6.814,3.61557 9.0389,-3.05933 6.1187,-3.61557 8.2045,-17.521582 5.8405,5.145224 8.0656,15.157568 6.9529,6.81395 7.3703,0.41718 7.092,6.81395 7.3702,-9.87327 7.0921,-3.89369 6.953,-0.27812 7.8569,1.3906 7.5788,-5.63194 7.2311,-10.359978"
             id="path36" /><path
             style="fill:none;fill-opacity:1;stroke:#f2595b;stroke-width:0.950726;stroke-linecap:square;stroke-dasharray:0.950726, 2.85218;stroke-dashoffset:0;stroke-opacity:1"
             d="M 1171.114,102.9293 H 1341.88"
             id="path37" /><path
             style="fill:none;fill-opacity:1;stroke:#f2595b;stroke-width:0.950726;stroke-linecap:square;stroke-dasharray:none;stroke-dashoffset:0;stroke-opacity:1;marker-start:url(#Triangle)"
             d="M 1256.2405,128.56716 V 108.70438"
             id="path38" /><path
             style="fill:none;fill-opacity:1;stroke:#999999;stroke-width:0.950728;stroke-linecap:square;stroke-dasharray:none;stroke-dashoffset:0;stroke-opacity:0.898039"
             d="m 1169.3164,155.06718 h 23.0094 v -18.28945 h 35.0056 v 18.48612 h 23.7959 v -19.66609 h 22.4194 v 20.25607 h 55.4583 v -21.04271 h 10.423"
             id="path39" /></g></g></g></g></svg>
